<svg xmlns="http://www.w3.org/2000/svg" xmlns:xlink="http://www.w3.org/1999/xlink" width="694px" height="473px" version="1.1"><defs/><g transform="translate(0.5,0.5)"><rect x="21" y="81" width="40" height="40" fill="#ffffff" stroke="#000000" pointer-events="none"/><rect x="341" y="71" width="40" height="120" fill="#ffffff" stroke="#000000" pointer-events="none"/><path d="M 61 101 L 335 101" fill="none" stroke="#000000" stroke-miterlimit="10" pointer-events="none"/><path d="M 340 101 L 333 105 L 335 101 L 333 98 Z" fill="#000000" stroke="#000000" stroke-miterlimit="10" pointer-events="none"/><g fill="#000000" font-family="Helvetica" text-anchor="middle" font-size="11px"><rect fill="#ffffff" stroke="none" x="131" y="95" width="142" height="14" stroke-width="0"/><text x="201" y="105">Alice veut lancer un instance</text></g><rect x="21" y="161" width="40" height="90" fill="#ffffff" stroke="#000000" pointer-events="none"/><rect x="1" y="1" width="80" height="40" fill="none" stroke="none" pointer-events="none"/><g fill="#000000" font-family="Helvetica" font-weight="bold" text-anchor="middle" font-size="18px"><text x="41" y="28">User/API</text></g><rect x="321" y="1" width="80" height="40" fill="none" stroke="none" pointer-events="none"/><g fill="#000000" font-family="Helvetica" font-weight="bold" text-anchor="middle" font-size="18px"><text x="361" y="28">Keystone</text></g><rect x="611" y="1" width="80" height="40" fill="none" stroke="none" pointer-events="none"/><g fill="#000000" font-family="Helvetica" font-weight="bold" text-anchor="middle" font-size="18px"><text x="651" y="28">Endpoint</text></g><rect x="631" y="161" width="50" height="120" fill="#ffffff" stroke="#000000" pointer-events="none"/><rect x="341" y="241" width="40" height="90" fill="#ffffff" stroke="#000000" pointer-events="none"/><rect x="631" y="301" width="50" height="70" fill="#ffffff" stroke="#000000" pointer-events="none"/><rect x="636" y="411" width="40" height="50" fill="#ffffff" stroke="#000000" pointer-events="none"/><path d="M 631 354 L 621 354 L 621 354 L 621 354 L 621 436 L 630 436" fill="none" stroke="#000000" stroke-miterlimit="10" pointer-events="none"/><path d="M 635 436 L 628 440 L 630 436 L 628 433 Z" fill="#000000" stroke="#000000" stroke-miterlimit="10" pointer-events="none"/><g fill="#000000" font-family="Helvetica" text-anchor="middle" font-size="11px"><rect fill="#ffffff" stroke="none" x="578" y="391" width="88" height="14" stroke-width="0"/><text x="621" y="401">Commande lancer</text></g><path d="M 341 171 L 201 172 L 201 171 L 67 171" fill="none" stroke="#000000" stroke-miterlimit="10" pointer-events="none"/><path d="M 62 171 L 69 167 L 67 171 L 69 174 Z" fill="#000000" stroke="#000000" stroke-miterlimit="10" pointer-events="none"/><g fill="#000000" font-family="Helvetica" text-anchor="middle" font-size="11px"><rect fill="#ffffff" stroke="none" x="144" y="159" width="115" height="27" stroke-width="0"/><text x="201" y="168">Alice faire une requette</text><text x="201" y="181">pour les tenants elle a</text></g><path d="M 61 206 L 346 206 L 346 207 L 625 206" fill="none" stroke="#000000" stroke-miterlimit="10" pointer-events="none"/><path d="M 630 206 L 623 210 L 625 206 L 623 203 Z" fill="#000000" stroke="#000000" stroke-miterlimit="10" pointer-events="none"/><g fill="#000000" font-family="Helvetica" text-anchor="middle" font-size="11px"><rect fill="#ffffff" stroke="none" x="218" y="200" width="257" height="14" stroke-width="0"/><text x="346" y="210">Keystone donne une list de toutes les service d'Alice</text></g><path d="M 631 261 L 387 261" fill="none" stroke="#000000" stroke-miterlimit="10" pointer-events="none"/><path d="M 382 261 L 389 258 L 387 261 L 389 265 Z" fill="#000000" stroke="#000000" stroke-miterlimit="10" pointer-events="none"/><g fill="#000000" font-family="Helvetica" text-anchor="middle" font-size="11px"><rect fill="#ffffff" stroke="none" x="449" y="255" width="116" height="14" stroke-width="0"/><text x="506" y="265">Service vérifier le token</text></g><path d="M 381 309 L 506 309 L 506 310 L 625 309" fill="none" stroke="#000000" stroke-miterlimit="10" pointer-events="none"/><path d="M 630 309 L 623 313 L 625 309 L 623 306 Z" fill="#000000" stroke="#000000" stroke-miterlimit="10" pointer-events="none"/><g fill="#000000" font-family="Helvetica" text-anchor="middle" font-size="11px"><rect fill="#ffffff" stroke="none" x="441" y="303" width="131" height="14" stroke-width="0"/><text x="506" y="313">Keystone envoyer le token</text></g><rect x="21" y="431" width="40" height="40" fill="#ffffff" stroke="#000000" pointer-events="none"/><path d="M 636 452 L 349 453 L 349 452 L 67 452" fill="none" stroke="#000000" stroke-miterlimit="10" pointer-events="none"/><path d="M 62 452 L 69 448 L 67 452 L 69 455 Z" fill="#000000" stroke="#000000" stroke-miterlimit="10" pointer-events="none"/><g fill="#000000" font-family="Helvetica" text-anchor="middle" font-size="11px"><rect fill="#ffffff" stroke="none" x="316" y="446" width="66" height="14" stroke-width="0"/><text x="349" y="455">statut signalé</text></g></g></svg>